<?xml version="1.0" encoding="utf-8"?>
<!-- Generator: Adobe Illustrator 23.0.1, SVG Export Plug-In . SVG Version: 6.00 Build 0)  -->
<svg version="1.1" id="Layer_1" xmlns="http://www.w3.org/2000/svg" xmlns:xlink="http://www.w3.org/1999/xlink" x="0px" y="0px"
	 viewBox="0 0 309 92" style="enable-background:new 0 0 309 92;" xml:space="preserve">
<style type="text/css">
	.st0{fill:#5347EA;}
</style>
<g>
	<path class="st0" d="M307,86.9h-4.5c-0.8,0-1.5-0.7-1.5-1.5v-3.8c0-0.8,0.7-1.5,1.5-1.5h3.2l-10.4-55h-2.2c-0.8,0-1.5-0.7-1.5-1.5
		v-3.8c0-0.8,0.7-1.5,1.5-1.5h0.9l-0.7-3.9H125l-1.6-5.5c0,0-0.8-7.1-12.7-7.1c-11.8,0-108.4,0-108.4,0L2.6,5c0,0,0.1,0,0.1,0h6.9
		c0.8,0,1.5,0.7,1.5,1.5v3.8c0,0.8-0.7,1.5-1.5,1.5H3.4l6.2,55.6h6c0.8,0,1.5,0.7,1.5,1.5v3.8c0,0.8-0.7,1.5-1.5,1.5h-5.3l0.4,3.7
		h112.3c1.7,0.3,3.6,1.2,4.3,4.6c1,4.1,3.2,7.6,8.4,7.9c4.8,0.3,8.1,0.1,8.5,0.1h163.4L307,86.9z M265.9,19.7c0-0.8,0.7-1.5,1.5-1.5
		h6.9c0.8,0,1.5,0.7,1.5,1.5v3.8c0,0.8-0.7,1.5-1.5,1.5h-6.9c-0.8,0-1.5-0.7-1.5-1.5V19.7z M240,19.7c0-0.8,0.7-1.5,1.5-1.5h6.9
		c0.8,0,1.5,0.7,1.5,1.5v3.8c0,0.8-0.7,1.5-1.5,1.5h-6.9c-0.8,0-1.5-0.7-1.5-1.5V19.7z M214.2,19.7c0-0.8,0.7-1.5,1.5-1.5h6.9
		c0.8,0,1.5,0.7,1.5,1.5v3.8c0,0.8-0.7,1.5-1.5,1.5h-6.9c-0.8,0-1.5-0.7-1.5-1.5V19.7z M188.4,19.7c0-0.8,0.7-1.5,1.5-1.5h6.9
		c0.8,0,1.5,0.7,1.5,1.5v3.8c0,0.8-0.7,1.5-1.5,1.5h-6.9c-0.8,0-1.5-0.7-1.5-1.5V19.7z M162.5,19.7c0-0.8,0.7-1.5,1.5-1.5h6.9
		c0.8,0,1.5,0.7,1.5,1.5v3.8c0,0.8-0.7,1.5-1.5,1.5H164c-0.8,0-1.5-0.7-1.5-1.5V19.7z M104.6,6.5c0-0.8,0.7-1.5,1.5-1.5h6.9
		c0.8,0,1.5,0.7,1.5,1.5v3.8c0,0.8-0.7,1.5-1.5,1.5h-6.9c-0.8,0-1.5-0.7-1.5-1.5V6.5z M78.8,6.5c0-0.8,0.7-1.5,1.5-1.5h6.9
		c0.8,0,1.5,0.7,1.5,1.5v3.8c0,0.8-0.7,1.5-1.5,1.5h-6.9c-0.8,0-1.5-0.7-1.5-1.5V6.5z M52.9,6.5c0-0.8,0.7-1.5,1.5-1.5h6.9
		c0.8,0,1.5,0.7,1.5,1.5v3.8c0,0.8-0.7,1.5-1.5,1.5h-6.9c-0.8,0-1.5-0.7-1.5-1.5V6.5z M27.1,6.5c0-0.8,0.7-1.5,1.5-1.5h6.9
		C36.3,5,37,5.7,37,6.5v3.8c0,0.8-0.7,1.5-1.5,1.5h-6.9c-0.8,0-1.5-0.7-1.5-1.5V6.5z M31,50.9h-5.3V27.9h8.5c0.8,0,1.6,0,2.2,0.1
		c1.7,0.2,2.8,0.6,3.5,1.1c1.5,1,2.2,3,2.2,5.9c0,2.9-0.8,4.9-2.3,5.9c-1.1,0.7-2.1,1.1-3,1.1c-0.7,0.1-1.5,0.1-2.5,0.1l-3.3,0V50.9
		z M43,72.8c0,0.8-0.7,1.5-1.5,1.5h-6.9c-0.8,0-1.5-0.7-1.5-1.5V69c0-0.8,0.7-1.5,1.5-1.5h6.9c0.8,0,1.5,0.7,1.5,1.5V72.8z
		 M53.9,46.4h-5.3l-1.1,4.5H42l6.2-22.9h6.1l6.2,22.9H55L53.9,46.4z M68.8,72.8c0,0.8-0.7,1.5-1.5,1.5h-6.9c-0.8,0-1.5-0.7-1.5-1.5
		V69c0-0.8,0.7-1.5,1.5-1.5h6.9c0.8,0,1.5,0.7,1.5,1.5V72.8z M75.2,50.9H62.3V27.9h5.1v18.5h7.8V50.9z M94.7,72.8
		c0,0.8-0.7,1.5-1.5,1.5h-6.9c-0.8,0-1.5-0.7-1.5-1.5V69c0-0.8,0.7-1.5,1.5-1.5h6.9c0.8,0,1.5,0.7,1.5,1.5V72.8z M89.9,50.9
		l-1.1-4.5h-5.3l-1.1,4.5h-5.6l6.2-22.9h6.2l6.2,22.9H89.9z M102,50.9c-0.9-0.2-1.7-0.6-2.4-1.2c-0.8-0.6-1.4-1.3-1.9-2.2
		c-0.5-0.9-0.9-2-1.1-3.4c-0.3-1.3-0.4-2.9-0.4-4.7c0-2.2,0.2-4.1,0.6-5.6c0.4-1.6,1-2.8,1.8-3.7c0.8-0.9,1.8-1.5,2.8-1.9
		c1-0.4,2.2-0.6,3.6-0.6c0,0,0,0,0.1,0c2.3,0,4.3,0.6,5.7,1.8c1.5,1.2,2.4,3.3,2.8,6.1l0.1,0.6h-5.4l-0.1-0.4
		c-0.3-1.4-0.7-2.3-1.2-2.9c-0.5-0.5-1.2-0.8-2-0.8h-0.2c-1,0-1.7,0.5-2.3,1.6c-0.6,1.1-0.9,3-0.9,5.7c0,1.5,0.1,2.7,0.3,3.7
		c0.2,1,0.5,1.7,0.8,2.2c0.3,0.5,0.7,0.8,1,1c0.4,0.2,0.8,0.3,1.3,0.3c0.8,0,1.5-0.2,2-0.8c0.5-0.5,0.9-1.5,1.2-2.8l0.1-0.4h5.5
		l-0.1,0.6c-0.4,2.9-1.4,4.9-2.8,6.2c-1.4,1.2-3.4,1.8-5.7,1.8C103.8,51.2,102.9,51.1,102,50.9z M120.5,72.8c0,0.8-0.7,1.5-1.5,1.5
		h-6.9c-0.8,0-1.5-0.7-1.5-1.5V69c0-0.8,0.7-1.5,1.5-1.5h6.9c0.8,0,1.5,0.7,1.5,1.5V72.8z M119.6,50.9h-4.3V27.9h6.6h3.7
		c0.2,1.4,0.4,2.9,0.7,4.5h-4.8h-1v4.4h0.6h5.8c0.1,1,0.2,2,0.4,3v1.5h-6.7h-0.2v1.5v3.6h7.5c0.1,1.5,0.3,3,0.4,4.5H119.6z
		 M138.9,66.6l-1.1-4.5h-5.3l-1.1,4.5h-1.7c0-0.2,0-0.3,0-0.5s0-0.3,0-0.5c0-0.2,0-0.4,0-0.6c-0.1-2.5-0.2-5-0.3-7.5
		c0-0.5-0.1-1-0.1-1.5c0-0.5-0.1-1-0.1-1.5l2.9-10.8h6.2l6.2,22.9H138.9z M138.2,25c-0.8,0-1.5-0.7-1.5-1.5v-3.8
		c0-0.8,0.7-1.5,1.5-1.5h6.9c0.8,0,1.5,0.7,1.5,1.5v3.8c0,0.8-0.7,1.5-1.5,1.5H138.2z M155.7,85.4c0,0.8-0.7,1.5-1.5,1.5h-6.9
		c-0.8,0-1.5-0.7-1.5-1.5v-3.8c0-0.8,0.7-1.5,1.5-1.5h6.9c0.8,0,1.5,0.7,1.5,1.5V85.4z M167.1,66.6h-5.3v-9.3l-3.4,9.3h-3.4
		l-3.4-9.3v9.3h-5.3V43.7h4.8l5.6,14.8l5.6-14.8h4.8V66.6z M181.5,85.4c0,0.8-0.7,1.5-1.5,1.5h-6.9c-0.8,0-1.5-0.7-1.5-1.5v-3.8
		c0-0.8,0.7-1.5,1.5-1.5h6.9c0.8,0,1.5,0.7,1.5,1.5V85.4z M185.7,58.5c0,2.6-0.7,4.7-2.1,6.2c-1.4,1.5-3.5,2.3-6.3,2.3
		c-2.8,0-4.9-0.8-6.3-2.3c-1.4-1.5-2.1-3.6-2.1-6.2V43.7h5.3v15.1c0,2.5,1,3.7,3.1,3.7c2.1,0,3.1-1.2,3.1-3.7V43.7h5.3V58.5z
		 M190.1,64.9c-0.7-0.7-1.3-1.5-1.8-2.4c-0.4-1-0.7-2.1-0.7-3.2l0-0.5h5.5l0,0.5c0,1.1,0.2,1.8,0.7,2.3c0.6,0.6,1.3,0.9,2.3,0.9
		c1,0,1.7-0.2,2.3-0.5c0.6-0.4,0.9-0.8,0.9-1.5c0-0.3,0-0.6-0.2-1c-0.2-0.3-0.4-0.6-0.6-0.7c-0.9-0.6-1.8-1.1-2.8-1.5
		c-1.8-0.7-3-1.3-3.7-1.7c-0.5-0.3-0.9-0.5-1.1-0.7c-1.7-1.2-2.6-2.8-2.7-4.6c0-0.1,0-0.3,0-0.5c0-1.4,0.4-2.6,1.1-3.6
		c1.5-1.9,3.9-2.8,7.2-2.8c2.5,0,4.5,0.6,5.8,1.7c1.4,1.1,2.2,2.9,2.4,5.3l0,0.7h-5.3v-0.5c0-1-0.2-1.8-0.7-2.3
		c-0.5-0.6-1.2-0.9-2.2-0.9c-0.9,0-1.6,0.2-2.1,0.5c-0.6,0.4-0.8,0.8-0.9,1.4c0,0.6,0.2,1,0.7,1.4c0.5,0.4,1.1,0.8,1.7,1.1
		c0.3,0.2,1.2,0.6,2.6,1.2c1.5,0.6,2.5,1.1,3.2,1.6c1,0.6,1.8,1.3,2.4,2.1c0.6,0.8,0.9,1.7,1,2.8c0,0.1,0,0.2,0,0.3
		c0,0.1,0,0.2,0,0.2c0,1.4-0.4,2.7-1.2,3.8c-1.6,2.1-4.1,3.1-7.6,3.2C193.8,67,191.7,66.3,190.1,64.9z M207.4,85.4
		c0,0.8-0.7,1.5-1.5,1.5H199c-0.8,0-1.5-0.7-1.5-1.5v-3.8c0-0.8,0.7-1.5,1.5-1.5h6.9c0.8,0,1.5,0.7,1.5,1.5V85.4z M220.2,48.2H212
		v4.4h6.8v4.5H212v5.1h8.1v4.5h-13.3V43.7h13.3V48.2z M233.2,85.4c0,0.8-0.7,1.5-1.5,1.5h-6.9c-0.8,0-1.5-0.7-1.5-1.5v-3.8
		c0-0.8,0.7-1.5,1.5-1.5h6.9c0.8,0,1.5,0.7,1.5,1.5V85.4z M242.9,66.6h-5.3v-9.3l-3.4,9.3h-3.4l-3.4-9.3v9.3H222V43.7h4.8l5.6,14.8
		l5.6-14.8h4.8V66.6z M244.8,43.7h13.3v4.5h-8.1v4.4h6.8v4.5h-6.8v5.1h8.1v4.5h-13.3V43.7z M259.1,85.4c0,0.8-0.7,1.5-1.5,1.5h-6.9
		c-0.8,0-1.5-0.7-1.5-1.5v-3.8c0-0.8,0.7-1.5,1.5-1.5h6.9c0.8,0,1.5,0.7,1.5,1.5V85.4z M271.6,66.4c-0.7-1.5-2-3.9-3.6-6.9
		c-1.1-2.1-2-3.8-2.7-5.1v12.3h-5.3V43.7h4.8l0.1,0.3c0.8,1.5,2,3.9,3.6,6.9c1.1,2,2,3.7,2.7,5.1V43.7h5.3v22.9h-4.8L271.6,66.4z
		 M284.9,85.4c0,0.8-0.7,1.5-1.5,1.5h-6.9c-0.8,0-1.5-0.7-1.5-1.5v-3.8c0-0.8,0.7-1.5,1.5-1.5h6.9c0.8,0,1.5,0.7,1.5,1.5V85.4z
		 M294.1,48.2h-5.2v18.4h-5.3V48.2h-5.2v-4.5h15.7V48.2z"/>
	<polygon class="st0" points="84.6,41.9 87.8,41.9 86.2,35.1 	"/>
	<polygon class="st0" points="49.7,41.9 52.9,41.9 51.3,35.1 	"/>
	<path class="st0" d="M36.6,35c0-1.6-0.3-2.2-0.6-2.5c-0.4-0.4-1-0.6-1.8-0.6H31v6.2h3.3c0.8,0,1.3-0.2,1.7-0.6
		C36.3,37.3,36.6,36.6,36.6,35z"/>
	<polygon class="st0" points="133.6,57.7 136.8,57.7 135.2,50.9 	"/>
</g>
</svg>
